<?xml version="1.0" encoding="UTF-8" standalone="no"?>
<!-- Created with Inkscape (http://www.inkscape.org/) -->

<svg
   xmlns:dc="http://purl.org/dc/elements/1.1/"
   xmlns:cc="http://creativecommons.org/ns#"
   xmlns:rdf="http://www.w3.org/1999/02/22-rdf-syntax-ns#"
   xmlns:svg="http://www.w3.org/2000/svg"
   xmlns="http://www.w3.org/2000/svg"
   xmlns:xlink="http://www.w3.org/1999/xlink"
   xmlns:sodipodi="http://sodipodi.sourceforge.net/DTD/sodipodi-0.dtd"
   xmlns:inkscape="http://www.inkscape.org/namespaces/inkscape"
   width="128"
   height="128"
   viewBox="0 0 33.866666 33.866668"
   version="1.1"
   id="svg8"
   inkscape:version="0.92.4 5da689c313, 2019-01-14"
   sodipodi:docname="logo.svg"
   inkscape:export-filename="/home/william/logo.png"
   inkscape:export-xdpi="96"
   inkscape:export-ydpi="96">
  <defs
     id="defs2">
    <linearGradient
       inkscape:collect="always"
       id="linearGradient5189">
      <stop
         style="stop-color:#2d9cdb;stop-opacity:1"
         offset="0"
         id="stop5185" />
      <stop
         style="stop-color:#62dafc;stop-opacity:1"
         offset="1"
         id="stop5187" />
    </linearGradient>
    <linearGradient
       inkscape:collect="always"
       xlink:href="#linearGradient5189"
       id="linearGradient5191"
       x1="-844.18317"
       y1="1081.892"
       x2="-844.18317"
       y2="521.25726"
       gradientUnits="userSpaceOnUse"
       gradientTransform="matrix(0.09039676,0,0,0.05767115,93.221673,233.75155)" />
  </defs>
  <sodipodi:namedview
     id="base"
     pagecolor="#ffffff"
     bordercolor="#666666"
     borderopacity="1.0"
     inkscape:pageopacity="0.0"
     inkscape:pageshadow="2"
     inkscape:zoom="1.979899"
     inkscape:cx="29.480253"
     inkscape:cy="59.938888"
     inkscape:document-units="cm"
     inkscape:current-layer="layer1"
     showgrid="false"
     showborder="true"
     inkscape:window-width="1920"
     inkscape:window-height="1016"
     inkscape:window-x="0"
     inkscape:window-y="27"
     inkscape:window-maximized="1"
     units="px" />
  <metadata
     id="metadata5">
    <rdf:RDF>
      <cc:Work
         rdf:about="">
        <dc:format>image/svg+xml</dc:format>
        <dc:type
           rdf:resource="http://purl.org/dc/dcmitype/StillImage" />
        <dc:title></dc:title>
      </cc:Work>
    </rdf:RDF>
  </metadata>
  <g
     inkscape:label="Camada 1"
     inkscape:groupmode="layer"
     id="layer1"
     transform="translate(0,-263.13332)">
    <path
       style="fill:url(#linearGradient5191);fill-opacity:1;stroke:none;stroke-width:0.07220307px;stroke-linecap:butt;stroke-linejoin:miter;stroke-opacity:1"
       d="m 9.9198165,263.92708 c -0.7076847,0.75733 -0.7076847,0.76431 0,1.56534 h 1.4281675 v 9.4334 c 0,0 -9.8143835,15.86978 -10.46006949,17.6308 -0.52796263,1.72912 1.23937509,3.12142 3.42200849,3.46029 1.4893302,0.181 12.623414,0.18933 12.623414,0.18933 0,0 11.133904,-0.009 12.623236,-0.18933 2.182633,-0.33887 3.950144,-1.73117 3.422189,-3.46029 -0.297178,-0.8105 -3.541779,-6.08097 -5.872645,-9.94604 -8.391719,1.47387 -11.534096,9.61988 -14.495031,7.91039 -2.417165,-1.39554 -1.209129,-6.61002 -0.416104,-7.48632 0.695819,-0.47183 -0.194234,4.1914 1.269523,5.0365 2.074292,1.19759 5.211346,-6.10913 12.953807,-6.708 -2.012819,-3.30527 -3.899798,-6.43733 -3.899798,-6.43733 v -9.4334 h 1.428164 c 0.707687,-0.80103 0.707687,-0.80801 0,-1.56534 h -7.013341 z"
       id="path5165"
       inkscape:connector-curvature="0"
       sodipodi:nodetypes="cccccccccccccccccccc" />
  </g>
</svg>
